<svg width="642" height="470" viewBox="0 0 642 470" fill="none" xmlns="http://www.w3.org/2000/svg">
    <path
        d="M38.6471 1H1V40M38.6471 1V40M38.6471 1H76.2941M38.6471 40H1M38.6471 40H76.2941M38.6471 40V79M1 40V79M76.2941 1V40M76.2941 1H113.941M76.2941 40H113.941M76.2941 40V79M113.941 1V40M113.941 1H151.588M113.941 40H151.588M113.941 40V79M151.588 1V40M151.588 1H189.235M151.588 40H189.235M151.588 40V79M189.235 1V40M189.235 1H226.882M189.235 40H226.882M189.235 40V79M226.882 1V40M226.882 1H264.529M226.882 40H264.529M226.882 40V79M264.529 1V40M264.529 1H302.176M264.529 40H302.176M264.529 40V79M302.176 1V40M302.176 1H339.824M302.176 40H339.824M302.176 40V79M339.824 1V40M339.824 1H377.471M339.824 40H377.471M339.824 40V79M377.471 1V40M377.471 1H415.118M377.471 40H415.118M377.471 40V79M415.118 1V40M415.118 1H452.765M415.118 40H452.765M415.118 40V79M452.765 1V40M452.765 1H490.412M452.765 40H490.412M452.765 40V79M490.412 1V40M490.412 1H528.059M490.412 40H528.059M490.412 40V79M528.059 1V40M528.059 1H565.706M528.059 40H565.706M528.059 40V79M565.706 1V40M565.706 1H603.353M565.706 40H603.353M565.706 40V79M603.353 1V40M603.353 1H641V40M603.353 40H641M603.353 40V79M641 40V79M38.6471 79H1M38.6471 79H76.2941M38.6471 79V118M1 79V118M76.2941 79H113.941M76.2941 79V118M113.941 79H151.588M113.941 79V118M151.588 79H189.235M151.588 79V118M189.235 79H226.882M189.235 79V118M226.882 79H264.529M226.882 79V118M264.529 79H302.176M264.529 79V118M302.176 79H339.824M302.176 79V118M339.824 79H377.471M339.824 79V118M377.471 79H415.118M377.471 79V118M415.118 79H452.765M415.118 79V118M452.765 79H490.412M452.765 79V118M490.412 79H528.059M490.412 79V118M528.059 79H565.706M528.059 79V118M565.706 79H603.353M565.706 79V118M603.353 79H641M603.353 79V118M641 79V118M38.6471 118H1M38.6471 118H76.2941M38.6471 118V157M1 118V157M76.2941 118H113.941M76.2941 118V157M113.941 118H151.588M113.941 118V157M151.588 118H189.235M151.588 118V157M189.235 118H226.882M189.235 118V157M226.882 118H264.529M226.882 118V157M264.529 118H302.176M264.529 118V157M302.176 118H339.824M302.176 118V157M339.824 118H377.471M339.824 118V157M377.471 118H415.118M377.471 118V157M415.118 118H452.765M415.118 118V157M452.765 118H490.412M452.765 118V157M490.412 118H528.059M490.412 118V157M528.059 118H565.706M528.059 118V157M565.706 118H603.353M565.706 118V157M603.353 118H641M603.353 118V157M641 118V157M38.6471 157H1M38.6471 157H76.2941M38.6471 157V196M1 157V196M76.2941 157H113.941M76.2941 157V196M113.941 157H151.588M113.941 157V196M151.588 157H189.235M151.588 157V196M189.235 157H226.882M189.235 157V196M226.882 157H264.529M226.882 157V196M264.529 157H302.176M264.529 157V196M302.176 157H339.824M302.176 157V196M339.824 157H377.471M339.824 157V196M377.471 157H415.118M377.471 157V196M415.118 157H452.765M415.118 157V196M452.765 157H490.412M452.765 157V196M490.412 157H528.059M490.412 157V196M528.059 157H565.706M528.059 157V196M565.706 157H603.353M565.706 157V196M603.353 157H641M603.353 157V196M641 157V196M38.6471 196H1M38.6471 196H76.2941M38.6471 196V235M1 196V235M76.2941 196H113.941M76.2941 196V235M113.941 196H151.588M113.941 196V235M151.588 196H189.235M151.588 196V235M189.235 196H226.882M189.235 196V235M226.882 196H264.529M226.882 196V235M264.529 196H302.176M264.529 196V235M302.176 196H339.824M302.176 196V235M339.824 196H377.471M339.824 196V235M377.471 196H415.118M377.471 196V235M415.118 196H452.765M415.118 196V235M452.765 196H490.412M452.765 196V235M490.412 196H528.059M490.412 196V235M528.059 196H565.706M528.059 196V235M565.706 196H603.353M565.706 196V235M603.353 196H641M603.353 196V235M641 196V235M38.6471 235H1M38.6471 235H76.2941M38.6471 235V274M1 235V274M76.2941 235H113.941M76.2941 235V274M113.941 235H151.588M113.941 235V274M151.588 235H189.235M151.588 235V274M189.235 235H226.882M189.235 235V274M226.882 235H264.529M226.882 235V274M264.529 235H302.176M264.529 235V274M302.176 235H339.824M302.176 235V274M339.824 235H377.471M339.824 235V274M377.471 235H415.118M377.471 235V274M415.118 235H452.765M415.118 235V274M452.765 235H490.412M452.765 235V274M490.412 235H528.059M490.412 235V274M528.059 235H565.706M528.059 235V274M565.706 235H603.353M565.706 235V274M603.353 235H641M603.353 235V274M641 235V274M38.6471 274H1M38.6471 274H76.2941M38.6471 274V313M1 274V313M76.2941 274H113.941M76.2941 274V313M113.941 274H151.588M113.941 274V313M151.588 274H189.235M151.588 274V313M189.235 274H226.882M189.235 274V313M226.882 274H264.529M226.882 274V313M264.529 274H302.176M264.529 274V313M302.176 274H339.824M302.176 274V313M339.824 274H377.471M339.824 274V313M377.471 274H415.118M377.471 274V313M415.118 274H452.765M415.118 274V313M452.765 274H490.412M452.765 274V313M490.412 274H528.059M490.412 274V313M528.059 274H565.706M528.059 274V313M565.706 274H603.353M565.706 274V313M603.353 274H641M603.353 274V313M641 274V313M38.6471 313H1M38.6471 313H76.2941M38.6471 313V352M1 313V352M76.2941 313H113.941M76.2941 313V352M113.941 313H151.588M113.941 313V352M151.588 313H189.235M151.588 313V352M189.235 313H226.882M189.235 313V352M226.882 313H264.529M226.882 313V352M264.529 313H302.176M264.529 313V352M302.176 313H339.824M302.176 313V352M339.824 313H377.471M339.824 313V352M377.471 313H415.118M377.471 313V352M415.118 313H452.765M415.118 313V352M452.765 313H490.412M452.765 313V352M490.412 313H528.059M490.412 313V352M528.059 313H565.706M528.059 313V352M565.706 313H603.353M565.706 313V352M603.353 313H641M603.353 313V352M641 313V352M38.6471 352H1M38.6471 352H76.2941M38.6471 352V391M1 352V391M76.2941 352H113.941M76.2941 352V391M113.941 352H151.588M113.941 352V391M151.588 352H189.235M151.588 352V391M189.235 352H226.882M189.235 352V391M226.882 352H264.529M226.882 352V391M264.529 352H302.176M264.529 352V391M302.176 352H339.824M302.176 352V391M339.824 352H377.471M339.824 352V391M377.471 352H415.118M377.471 352V391M415.118 352H452.765M415.118 352V391M452.765 352H490.412M452.765 352V391M490.412 352H528.059M490.412 352V391M528.059 352H565.706M528.059 352V391M565.706 352H603.353M565.706 352V391M603.353 352H641M603.353 352V391M641 352V391M38.6471 391H1M38.6471 391H76.2941M38.6471 391V430M1 391V430M76.2941 391H113.941M76.2941 391V430M113.941 391H151.588M113.941 391V430M151.588 391H189.235M151.588 391V430M189.235 391H226.882M189.235 391V430M226.882 391H264.529M226.882 391V430M264.529 391H302.176M264.529 391V430M302.176 391H339.824M302.176 391V430M339.824 391H377.471M339.824 391V430M377.471 391H415.118M377.471 391V430M415.118 391H452.765M415.118 391V430M452.765 391H490.412M452.765 391V430M490.412 391H528.059M490.412 391V430M528.059 391H565.706M528.059 391V430M565.706 391H603.353M565.706 391V430M603.353 391H641M603.353 391V430M641 391V430M38.6471 430H1M38.6471 430H76.2941M38.6471 430V469M1 430V469H38.6471M76.2941 430H113.941M76.2941 430V469M113.941 430H151.588M113.941 430V469M151.588 430H189.235M151.588 430V469M189.235 430H226.882M189.235 430V469M226.882 430H264.529M226.882 430V469M264.529 430H302.176M264.529 430V469M302.176 430H339.824M302.176 430V469M339.824 430H377.471M339.824 430V469M377.471 430H415.118M377.471 430V469M415.118 430H452.765M415.118 430V469M452.765 430H490.412M452.765 430V469M490.412 430H528.059M490.412 430V469M528.059 430H565.706M528.059 430V469M565.706 430H603.353M565.706 430V469M603.353 430H641M603.353 430V469M641 430V469H603.353M38.6471 469H76.2941M76.2941 469H113.941M113.941 469H151.588M151.588 469H189.235M189.235 469H226.882M226.882 469H264.529M264.529 469H302.176M302.176 469H339.824M339.824 469H377.471M377.471 469H415.118M415.118 469H452.765M452.765 469H490.412M490.412 469H528.059M528.059 469H565.706M565.706 469H603.353"
        stroke="url(#paint0_radial_797_131)" stroke-opacity="0.06" />
    <defs>
        <radialGradient id="paint0_radial_797_131" cx="0" cy="0" r="1"
            gradientUnits="userSpaceOnUse"
            gradientTransform="translate(321 247.5) rotate(90) scale(221 320.483)">
            <stop offset="0.399038" stop-color="white" />
            <stop offset="1" stop-color="white" stop-opacity="0" />
        </radialGradient>
    </defs>
</svg>
    